# xmcd
#
# Track frame offsets: 
#        150
#        14857
#        30140
#        52192
#        73490
#        92280
#        112400
#        128350
#        135987
#        152620
#        164562
#        181147
#        197292
#        217315
#
# Disc length: 3058 seconds
#
# Revision: 6
# Processed by: cddbd v1.5.2PL0 Copyright (c) Steve Scherf et al.
# Submitted via: ExactAudioCopy v0.95b4
#
DISCID=c30bf00e
DTITLE=Colin James - National Steel
DYEAR=1997
DGENRE=Rock
TTITLE0=Shout Baby Shout
TTITLE1=Rollin' Stone
TTITLE2=National Steel
TTITLE3=These Arms of Mine
TTITLE4=Going up to the Country
TTITLE5=Fixin' to Die
TTITLE6=Somebody Have Mercy
TTITLE7=Postman's Sack
TTITLE8=Please Baby
TTITLE9=Ride and Roll
TTITLE10=I Live the Life I Love
TTITLE11=My Mind Is on Vacation
TTITLE12=Before the Dawn
TTITLE13=Kind-Hearted Woman
EXTD=
EXTT0=
EXTT1=
EXTT2=
EXTT3=
EXTT4=
EXTT5=
EXTT6=
EXTT7=
EXTT8=
EXTT9=
EXTT10=
EXTT11=
EXTT12=
EXTT13=
PLAYORDER=
